<svg width="220" height="52" viewBox="0 0 220 52" fill="none" xmlns="http://www.w3.org/2000/svg">
<path d="M3.65 44.75L4.05 43.95L6.5 40.7L7.2 39.35L9.35 36.65V33.8L10.15 32.55L11 30.95L11.4 30.55L14.5 26.5L6.4 20.35H4.05L3.6 18.85L0.4 16.5V14.25L12.2 2.5L13 0.849998H22.7L21.55 5.35L21.15 6.55L19.9 11H19.1L18.3 8.15L17.05 6.95H16.65V7.35L9.4 15.05L19.1 22.75L19.5 25.25L21.2 28.15L17.5 33.4L16.65 34.6L13.8 38.65L9.75 44.75L8.55 46L5.75 47.1L4.7 49.15L0.8 50.45V48.75L3.65 44.75ZM28.5734 42.95V5.6L26.1234 5.15V2.75L25.7234 1.9V1.1H44.0234L47.6734 4.75V17.4L43.0234 21.65L41.7734 20.4L39.9734 22.25L33.8734 26.6L33.4734 36.9L31.9734 38.85L31.3234 42.75L28.5734 44.6L28.1734 44.2L28.5734 42.95ZM34.3234 19.5L41.1734 14.5L42.3734 14.1V5.6H34.2734L33.7234 18.85L34.3234 19.5ZM55.8688 39.5L53.0188 36.15L52.6188 6.1L50.9688 4.05L50.5688 2.45L50.1688 1.6L50.5688 1.2H58.3188V44.3H57.4688L55.8688 41.85V39.5ZM68.4457 46.25L67.1457 44.3V37.45L64.6957 35.85L64.2957 5.85L62.6457 3.85V2.2L62.0457 0.999999H78.0957L81.3457 5.85V34.75L75.2457 44.9H71.5957L70.7957 46.5L68.7457 48.55H67.6457L68.4457 46.25ZM70.3957 40L72.3957 38L74.0457 34.75L76.8957 30.95V12.55L75.6457 10.75L75.1957 5.45H69.9457V39.6L70.3957 40ZM89.2055 26.2L87.6055 24.05V22.95L86.8055 21.4L89.2055 20.9V6.3L84.7555 1.8V0.999999H101.005L101.955 1.95L101.405 3.05L98.5555 5.9H95.7555V20.9L102.255 21.35V22.15L101.405 22.95L99.8055 25.65L96.1555 26.3V44.1H101.405V45.3L100.205 46.55H98.5555L95.3055 49.35L94.1055 48.55H92.9055L90.1555 51.3L89.2055 49.35V26.2ZM109.917 43.25L109.517 42L107.467 39.15L107.067 5.45L104.217 4.85V4.2L105.417 3H106.917L105.567 0.949997H120.867L121.717 2.2L124.117 3.6L124.567 5.85L125.217 7.2L123.317 11.95L122.917 12.75L121.267 16.4L120.067 18.85V21.4L123.317 30.25L124.117 32.65L129.017 46.1V46.9H128.117L126.167 44.45L125.217 42.05L120.867 39.15L118.467 33.1L118.017 32.25L116.417 28.2L115.617 26.55L114.767 24.55L114.367 23.75L113.217 20.9H112.367V49.75H111.517L111.117 45.7L109.917 43.25ZM112.367 18.45H113.167L113.967 16.8L118.467 9.1L119.267 7.45L120.067 6.25V5.45H112.367V18.45ZM137.321 20.65L135.521 25.45C135.488 25.4833 135.454 25.5 135.421 25.5H135.271C134.371 25.5 133.721 25.35 133.321 25.05C132.954 24.75 132.688 24.3667 132.521 23.9C132.354 23.4 132.204 22.8667 132.071 22.3C131.938 21.7333 131.688 21.1833 131.321 20.65H137.321ZM146.32 41.2L144.32 39.95L143.72 38.25L142.27 36.3V6.65L141.07 3.4L139.82 1.75V0.949997H146.72L147.77 2L153.57 15.1L154.87 16.4L156.92 10.3L157.72 8.65L158.12 7.45L159.77 3.4V1.05H166.77L165.82 4.2L165.42 44.85H164.42L163.82 43.65L163.37 40.55L160.57 36.3V16.8H159.77V17.6L158.52 20.05L156.92 24.95L154.67 29.4H153.72L153.12 26.25L152.42 24.95L149.27 16.8H148.77L148.37 44.85H147.27L146.32 41.2ZM191.062 44.2L188.062 41.95L187.512 39.2L187.112 37.6L186.262 32.3L185.862 30.65L185.262 26.4L184.662 25.8H177.262L176.512 28.65L173.812 46.25L173.162 47.6L172.462 46.95L172.062 41.65L171.262 40.45V37.6L170.012 35.55V32.3L171.062 26.65L170.012 22.55L169.262 21L171.712 20.5L172.862 13.2L174.312 6.1L173.262 3.05L172.062 1.8V0.999999H186.912L187.512 2.2L189.562 15.2L189.962 17.25L190.412 20.45L192.812 21V22.55L190.962 26.2L192.562 35.95L193.212 40.85L194.012 45.7V47.75H193.212L191.762 46.3L191.062 44.2ZM184.112 20.95L182.412 12.6L181.212 4.05L180.212 3.05L179.362 9.15L178.962 11.15L177.512 20.5L184.112 20.95ZM201.918 44.15L199.168 40.3V6.3L198.368 5.1L197.918 2.65L196.718 1.85V1.05H204.018L204.868 2.65L208.518 14.85L208.918 16.1L210.018 19.85L211.168 22.2H211.768V3.05L210.518 1.85V1.05H219.468V3.9L218.268 6.3V47.8H216.818L215.818 45.75L214.968 43.15L213.368 42.1L212.868 39.95L210.718 37.85L205.268 21.35H204.418V48.6H203.618L202.818 47.8L201.918 44.15Z" fill="white"/>
</svg>
